<?xml version="1.0" encoding="utf-8"?>
<svg width="auto" height="auto" viewBox="0 0 2048 2048" version="1.1"
  xmlns:xlink="http://www.w3.org/1999/xlink"
  xmlns="http://www.w3.org/2000/svg">
  <defs>
    <linearGradient x1="2.677144E-08" y1="-2.8361441E-08" x2="1.0000001" y2="1.0000001" id="gradient_1">
      <stop offset="0%" stop-color="#7B83EB" />
      <stop offset="53.0303%" stop-color="#5059C9" />
      <stop offset="100%" stop-color="#4285F4" />
    </linearGradient>
  </defs>
  <g id="Logo-Microsoft-Teams-Developer-Portal">
    <path d="M0 0L2048 0L2048 2048L0 2048L0 0Z" id="Background" fill="none" fill-rule="evenodd" stroke="none" />
    <g id="Icon" transform="translate(192 128)">
      <path d="M0 105.828C0 47.3805 46.6624 0 104.224 0L1044.75 0C1060.59 0.0678406 1075.88 4.0896 1089.46 11.4112L1089.46 11.4189C1103.42 18.9466 1115.54 29.9584 1124.52 43.7414L1618.85 802.181C1621.29 805.595 1623.76 808.983 1626.2 812.364C1654.12 850.82 1681.23 888.172 1650.18 952.178L1195.89 1743.42C1189.58 1754.44 1181.3 1763.92 1171.69 1771.47C1167.97 1774.39 1164.04 1777.02 1159.95 1779.37L1159.95 1779.38C1145.78 1787.44 1129.64 1791.88 1112.85 1791.88L189.28 1792C136.536 1792.03 103.57 1734.21 129.569 1687.82L584.114 896.12L584.109 896.113L584.049 896.017L581.622 896.017L415.639 641.372L69.4835 641.372C31.1091 641.372 0 609.787 0 570.821L0 105.828L0 105.828ZM319.323 303.318L190.634 104.593L1040.65 104.593L1488.33 791.424L636.97 791.424L506.012 590.516L319.323 303.318L319.323 303.318ZM137.749 536.78C118.563 536.78 103.008 520.988 103.008 501.505L103.008 161.75L347.462 536.78L137.749 536.78L137.749 536.78ZM1099.58 1687L654.651 1004.35L652.19 1000.6L643.364 1000.6L249.042 1687.41L1099.36 1687.3L1099.58 1687L1099.58 1687ZM1558.99 903.352L1162.7 1593.55L968.271 1293.47L740.458 946.477L709.835 899.497L1560.22 899.497L1560.38 899.808C1560.06 900.727 1559.62 901.902 1558.99 903.352L1558.99 903.352Z" id="Shape" fill="url(#gradient_1)" fill-rule="evenodd" stroke="none" />
    </g>
  </g>
</svg>